name analog
datacolumns 19
datarows 33
range 0.156 0.17200000000000001
endheader
time	ground_force_vx	ground_force_vy	ground_force_vz	ground_force_px	ground_force_py	ground_force_pz	l_ground_force_vx	l_ground_force_vy	l_ground_force_vz	l_ground_force_px	l_ground_force_py	l_ground_force_pz	ground_torque_x	ground_torque_y	ground_torque_z	l_ground_torque_x	l_ground_torque_y	l_ground_torque_z
0.156	-0.0	-0.0	-0.0	9.382330894470217	-2.7731850147247314	-718.5805053710938	-0.0	-0.0	-0.0	-34.636009216308594	15.924625396728516	73.51200103759766	-0.0	-0.0	-0.0	-0.0	-0.0	-0.0
0.1565	-0.0	-0.0	-0.0	8.821613311767578	-2.238477945327759	-715.2500610351562	-0.0	-0.0	-0.0	-35.088645935058594	16.289764404296875	75.84671020507812	-0.0	-0.0	-0.0	-0.0	-0.0	-0.0
0.157	-0.0	-0.0	-0.0	8.028945922851562	-2.1339831352233887	-714.5646362304688	-0.0	-0.0	-0.0	-34.80461502075195	16.33207893371582	76.0946044921875	-0.0	-0.0	-0.0	-0.0	-0.0	-0.0
0.1575	-0.0	-0.0	-0.0	6.443843364715576	-1.342123031616211	-713.8789672851562	-0.0	-0.0	-0.0	-35.067718505859375	15.771286010742188	74.8358154296875	-0.0	-0.0	-0.0	-0.0	-0.0	-0.0
0.158	-0.0	-0.0	-0.0	5.179417610168457	-0.6551342010498047	-716.6226806640625	-0.0	-0.0	-0.0	-34.89945602416992	16.02530860900879	75.103759765625	-0.0	-0.0	-0.0	-0.0	-0.0	-0.0
0.1585	-0.0	-0.0	-0.0	4.539244174957275	0.5242999792098999	-717.5993041992188	-0.0	-0.0	-0.0	-35.05699157714844	16.34749984741211	75.37053680419922	-0.0	-0.0	-0.0	-0.0	-0.0	-0.0
0.159	-0.0	-0.0	-0.0	2.991499423980713	2.123292922973633	-719.302001953125	-0.0	-0.0	-0.0	-34.91040802001953	16.52181625366211	74.13567352294922	-0.0	-0.0	-0.0	-0.0	-0.0	-0.0
0.1595	-0.0	-0.0	-0.0	2.996035099029541	3.711686611175537	-718.2840576171875	-0.0	-0.0	-0.0	-34.96742248535156	15.766496658325195	75.74185943603516	-0.0	-0.0	-0.0	-0.0	-0.0	-0.0
0.16	-0.0	-0.0	-0.0	1.4540724754333496	3.827271223068237	-715.2950439453125	-0.0	-0.0	-0.0	-34.74264144897461	16.44797134399414	75.78424835205078	-0.0	-0.0	-0.0	-0.0	-0.0	-0.0
0.1605	-0.0	-0.0	-0.0	1.0436334609985352	4.948312759399414	-710.7470703125	-0.0	-0.0	-0.0	-35.35958480834961	16.042238235473633	76.42130279541016	-0.0	-0.0	-0.0	-0.0	-0.0	-0.0
0.161	-0.0	-0.0	-0.0	0.5514638423919678	5.399186611175537	-709.0997924804688	-0.0	-0.0	-0.0	-34.71540451049805	16.04789924621582	74.81776428222656	-0.0	-0.0	-0.0	-0.0	-0.0	-0.0
0.1615	-0.0	-0.0	-0.0	1.1325469017028809	5.709778785705566	-704.305419921875	-0.0	-0.0	-0.0	-34.96159362792969	16.12691879272461	77.5168228149414	-0.0	-0.0	-0.0	-0.0	-0.0	-0.0
0.162	-0.0	-0.0	-0.0	1.059574842453003	6.417388916015625	-701.10546875	-0.0	-0.0	-0.0	-34.88880157470703	16.470069885253906	76.3978271484375	-0.0	-0.0	-0.0	-0.0	-0.0	-0.0
0.1625	-0.0	-0.0	-0.0	0.7411419153213501	7.497927188873291	-698.6552124023438	-0.0	-0.0	-0.0	-34.871971130371094	16.188892364501953	76.79248809814453	-0.0	-0.0	-0.0	-0.0	-0.0	-0.0
0.163	-0.0	-0.0	-0.0	0.4460525512695312	8.439766883850098	-698.5242919921875	-0.0	-0.0	-0.0	-34.7211799621582	16.357431411743164	75.4547119140625	-0.0	-0.0	-0.0	-0.0	-0.0	-0.0
0.1635	-0.0	-0.0	-0.0	0.8754042387008667	8.974360466003418	-695.7645263671875	-0.0	-0.0	-0.0	-34.866058349609375	15.976094245910645	75.17068481445312	-0.0	-0.0	-0.0	-0.0	-0.0	-0.0
0.164	-0.0	-0.0	-0.0	-0.1504687666893005	8.52859115600586	-692.9612426757812	-0.0	-0.0	-0.0	-34.8336067199707	16.18305015563965	75.1485595703125	-0.0	-0.0	-0.0	-0.0	-0.0	-0.0
0.1645	-0.0	-0.0	-0.0	-0.3737264573574066	6.991532802581787	-692.63037109375	-0.0	-0.0	-0.0	-34.799346923828125	16.127685546875	75.14885711669922	-0.0	-0.0	-0.0	-0.0	-0.0	-0.0
0.165	-0.0	-0.0	-0.0	-0.4573842287063598	5.514763355255127	-691.9916381835938	-0.0	-0.0	-0.0	-34.90037155151367	16.133657455444336	76.81312561035156	-0.0	-0.0	-0.0	-0.0	-0.0	-0.0
0.1655	-0.0	-0.0	-0.0	-0.6301612257957458	2.469028949737549	-696.11767578125	-0.0	-0.0	-0.0	-34.82257461547852	16.597658157348633	75.43193054199219	-0.0	-0.0	-0.0	-0.0	-0.0	-0.0
0.166	-0.0	-0.0	-0.0	-1.1540123224258425	-0.1382268667221069	-703.0	-0.0	-0.0	-0.0	-35.05018615722656	15.96576690673828	74.79866027832031	-0.0	-0.0	-0.0	-0.0	-0.0	-0.0
0.1665	-0.0	-0.0	-0.0	-0.8086565732955933	-3.3409008979797363	-708.85498046875	-0.0	-0.0	-0.0	-34.88291931152344	16.200448989868164	75.477783203125	-0.0	-0.0	-0.0	-0.0	-0.0	-0.0
0.167	-0.0	-0.0	-0.0	-0.2560322284698486	-5.413776874542236	-719.5511474609375	-0.0	-0.0	-0.0	-34.89472198486328	16.27855110168457	77.39786529541016	-0.0	-0.0	-0.0	-0.0	-0.0	-0.0
0.1675	-0.0	-0.0	-0.0	0.3393847942352295	-6.506519317626953	-725.3855590820312	-0.0	-0.0	-0.0	-34.78746795654297	16.344608306884766	75.17366027832031	-0.0	-0.0	-0.0	-0.0	-0.0	-0.0
0.168	-0.0	-0.0	-0.0	0.6551163792610168	-8.68211555480957	-732.4952392578125	-0.0	-0.0	-0.0	-35.198822021484375	15.94866943359375	75.52505493164062	-0.0	-0.0	-0.0	-0.0	-0.0	-0.0
0.1685	-0.0	-0.0	-0.0	0.6126846671104431	-11.83078670501709	-738.71240234375	-0.0	-0.0	-0.0	-35.103050231933594	16.01459503173828	75.3131332397461	-0.0	-0.0	-0.0	-0.0	-0.0	-0.0
0.169	-0.0	-0.0	-0.0	0.6481322050094604	-14.308629035949709	-743.4437255859375	-0.0	-0.0	-0.0	-34.948089599609375	16.03887176513672	76.53124237060547	-0.0	-0.0	-0.0	-0.0	-0.0	-0.0
0.1695	-0.0	-0.0	-0.0	1.314348220825195	-16.530677795410156	-747.0933837890625	-0.0	-0.0	-0.0	-34.72810363769531	15.865192413330078	76.8585205078125	-0.0	-0.0	-0.0	-0.0	-0.0	-0.0
0.17	-0.0	-0.0	-0.0	1.784210205078125	-18.063549041748047	-751.2611694335938	-0.0	-0.0	-0.0	-34.74043655395508	16.020740509033203	75.57456970214844	-0.0	-0.0	-0.0	-0.0	-0.0	-0.0
0.1705	-0.0	-0.0	-0.0	2.159087419509888	-18.49107360839844	-753.051025390625	-0.0	-0.0	-0.0	-34.4967041015625	15.871659278869627	75.50282287597656	-0.0	-0.0	-0.0	-0.0	-0.0	-0.0
0.171	-0.0	-0.0	-0.0	2.9152305126190186	-18.812559127807617	-754.3444213867188	-0.0	-0.0	-0.0	-34.490875244140625	16.290708541870117	76.2534408569336	-0.0	-0.0	-0.0	-0.0	-0.0	-0.0
0.1715	-0.0	-0.0	-0.0	2.9865565299987797	-19.341297149658203	-751.3583374023438	-0.0	-0.0	-0.0	-35.11993408203125	15.589719772338867	73.37335205078125	-0.0	-0.0	-0.0	-0.0	-0.0	-0.0
0.17200000000000001	-0.0	-0.0	-0.0	2.956156015396118	-19.833385467529297	-751.1654052734375	-0.0	-0.0	-0.0	-34.62665557861328	15.859699249267578	76.18103790283203	-0.0	-0.0	-0.0	-0.0	-0.0	-0.0
